<svg height="512pt" viewBox="-86 0 512 512" width="512pt" xmlns="http://www.w3.org/2000/svg"><path d="m289.996094 40h-129.996094c-5.523438 0-10 4.476562-10 10s4.476562 10 10 10h119.996094v220h-219.996094v-220h10c5.523438 0 10-4.476562 10-10s-4.476562-10-10-10h-20c-5.523438 0-10 4.476562-10 10v320c0 5.519531 4.476562 10 10 10h239.996094c5.523437 0 10-4.480469 10-10v-320c0-5.523438-4.476563-10-10-10zm-229.996094 320v-60h219.996094v60zm0 0"/><path d="m290 0h-240c-27.570312 0-50 22.429688-50 50v320c0 24.144531 17.207031 44.347656 40 48.992188v43.007812c0 27.570312 22.429688 50 50 50h160c27.570312 0 50-22.429688 50-50v-43.003906c22.792969-4.648438 40-24.851563 40-48.996094v-320c-.003906-27.570312-22.433594-50-50-50zm29.996094 370c0 16.539062-13.457032 30-30 30-5.519532 0-10 4.476562-10 10v52c0 16.542969-13.457032 30-30 30h-159.996094c-16.542969 0-30-13.457031-30-30v-52c0-5.523438-4.476562-10-10-10-16.542969 0-30-13.460938-30-30v-320c0-16.542969 13.457031-30 30-30h239.996094c16.542968 0 30 13.457031 30 30zm0 0"/><path d="m102.503906 320h-.007812c-5.523438 0-9.996094 4.476562-9.996094 10s4.480469 10 10.003906 10c5.523438 0 10-4.476562 10-10s-4.476562-10-10-10zm0 0"/><path d="m147.503906 320h-.007812c-5.523438 0-9.996094 4.476562-9.996094 10s4.480469 10 10.003906 10c5.523438 0 10-4.476562 10-10s-4.476562-10-10-10zm0 0"/><path d="m192.503906 320h-.007812c-5.523438 0-9.996094 4.476562-9.996094 10s4.480469 10 10.003906 10c5.519532 0 10-4.476562 10-10s-4.480468-10-10-10zm0 0"/><path d="m237.503906 320h-.011718c-5.519532 0-9.992188 4.476562-9.992188 10s4.480469 10 10.003906 10c5.519532 0 10-4.476562 10-10s-4.480468-10-10-10zm0 0"/><path d="m120.5 160.503906c13.222656-13.222656 30.800781-20.503906 49.5-20.503906 18.695312 0 36.273438 7.28125 49.496094 20.503906 1.953125 1.949219 4.511718 2.925782 7.070312 2.925782s5.117188-.976563 7.070313-2.925782c3.90625-3.90625 3.90625-10.238281 0-14.144531-16.996094-17-39.597657-26.359375-63.636719-26.359375-24.042969 0-46.640625 9.359375-63.640625 26.359375-3.90625 3.90625-3.90625 10.238281 0 14.144531 3.90625 3.902344 10.238281 3.902344 14.140625 0zm0 0"/><path d="m198.285156 191.714844c2.558594 0 5.117188-.976563 7.070313-2.929688 3.902343-3.902344 3.902343-10.234375 0-14.140625-19.496094-19.496093-51.21875-19.496093-70.710938 0-3.90625 3.902344-3.90625 10.234375 0 14.140625 3.902344 3.90625 10.234375 3.90625 14.140625 0 11.699219-11.695312 30.730469-11.695312 42.425782 0 1.953124 1.953125 4.511718 2.929688 7.074218 2.929688zm0 0"/><path d="m169.996094 200c-5.523438 0-9.996094 4.476562-9.996094 10 0 5.519531 4.480469 10 10.003906 10 5.519532 0 10-4.480469 10-10 0-5.523438-4.480468-10-10-10zm0 0"/><path d="m150.003906 452h-.007812c-5.523438 0-9.996094 4.476562-9.996094 10s4.480469 10 10.003906 10c5.523438 0 10-4.476562 10-10s-4.476562-10-10-10zm0 0"/><path d="m249.996094 452h-54.996094c-5.519531 0-10 4.476562-10 10s4.480469 10 10 10h54.996094c5.523437 0 10-4.476562 10-10s-4.476563-10-10-10zm0 0"/><path d="m115.003906 60c5.523438 0 10-4.476562 10-10s-4.476562-10-10-10h-.007812c-5.523438 0-9.996094 4.476562-9.996094 10s4.480469 10 10.003906 10zm0 0"/></svg>